<mxfile host="app.diagrams.net" agent="Mozilla/5.0 (Windows NT 10.0; Win64; x64) AppleWebKit/537.36 (KHTML, like Gecko) Chrome/132.0.0.0 Safari/537.36" version="26.0.14">
  <diagram id="C5RBs43oDa-KdzZeNtuy" name="Page-1">
    <mxGraphModel dx="2795" dy="912" grid="1" gridSize="10" guides="1" tooltips="1" connect="1" arrows="1" fold="1" page="1" pageScale="1" pageWidth="827" pageHeight="1169" math="0" shadow="0">
      <root>
        <mxCell id="WIyWlLk6GJQsqaUBKTNV-0" />
        <mxCell id="WIyWlLk6GJQsqaUBKTNV-1" parent="WIyWlLk6GJQsqaUBKTNV-0" />
        <mxCell id="WIyWlLk6GJQsqaUBKTNV-2" value="" style="rounded=0;html=1;jettySize=auto;orthogonalLoop=1;fontSize=11;endArrow=block;endFill=0;endSize=8;strokeWidth=1;shadow=0;labelBackgroundColor=none;edgeStyle=orthogonalEdgeStyle;exitX=0.5;exitY=1;exitDx=0;exitDy=0;exitPerimeter=0;entryX=0.5;entryY=0;entryDx=0;entryDy=0;" parent="WIyWlLk6GJQsqaUBKTNV-1" source="cVOPwoL7nlYSS6HuAmnp-7" target="cVOPwoL7nlYSS6HuAmnp-0" edge="1">
          <mxGeometry relative="1" as="geometry">
            <mxPoint x="-620" y="130" as="sourcePoint" />
            <mxPoint x="-620" y="180" as="targetPoint" />
          </mxGeometry>
        </mxCell>
        <mxCell id="cVOPwoL7nlYSS6HuAmnp-0" value="&lt;font style=&quot;font-size: 15px;&quot;&gt;i=1,&lt;/font&gt;&lt;div&gt;&lt;font style=&quot;font-size: 15px;&quot;&gt;sum=0&lt;/font&gt;&lt;/div&gt;" style="shape=hexagon;perimeter=hexagonPerimeter2;whiteSpace=wrap;html=1;fixedSize=1;" parent="WIyWlLk6GJQsqaUBKTNV-1" vertex="1">
          <mxGeometry x="-680" y="170" width="120" height="60" as="geometry" />
        </mxCell>
        <mxCell id="cVOPwoL7nlYSS6HuAmnp-6" value="&lt;font style=&quot;font-size: 15px;&quot;&gt;sum=sum+i&lt;/font&gt;" style="rounded=0;whiteSpace=wrap;html=1;" parent="WIyWlLk6GJQsqaUBKTNV-1" vertex="1">
          <mxGeometry x="-680" y="270" width="120" height="40" as="geometry" />
        </mxCell>
        <mxCell id="cVOPwoL7nlYSS6HuAmnp-7" value="&lt;font style=&quot;font-size: 15px;&quot;&gt;시작&lt;/font&gt;" style="strokeWidth=2;html=1;shape=mxgraph.flowchart.terminator;whiteSpace=wrap;" parent="WIyWlLk6GJQsqaUBKTNV-1" vertex="1">
          <mxGeometry x="-670" y="90" width="100" height="40" as="geometry" />
        </mxCell>
        <mxCell id="cVOPwoL7nlYSS6HuAmnp-10" value="&lt;font style=&quot;font-size: 15px;&quot;&gt;i=i+1&lt;/font&gt;" style="rounded=0;whiteSpace=wrap;html=1;" parent="WIyWlLk6GJQsqaUBKTNV-1" vertex="1">
          <mxGeometry x="-680" y="350" width="120" height="40" as="geometry" />
        </mxCell>
        <mxCell id="cVOPwoL7nlYSS6HuAmnp-12" value="&lt;font style=&quot;font-size: 15px;&quot;&gt;i&amp;gt;=10&lt;/font&gt;" style="rhombus;whiteSpace=wrap;html=1;" parent="WIyWlLk6GJQsqaUBKTNV-1" vertex="1">
          <mxGeometry x="-680" y="430" width="120" height="50" as="geometry" />
        </mxCell>
        <mxCell id="cVOPwoL7nlYSS6HuAmnp-13" value="" style="edgeStyle=elbowEdgeStyle;elbow=horizontal;endArrow=classic;html=1;curved=0;rounded=0;endSize=8;startSize=8;exitX=0;exitY=0.5;exitDx=0;exitDy=0;" parent="WIyWlLk6GJQsqaUBKTNV-1" source="cVOPwoL7nlYSS6HuAmnp-12" edge="1">
          <mxGeometry width="50" height="50" relative="1" as="geometry">
            <mxPoint x="-640" y="490" as="sourcePoint" />
            <mxPoint x="-640" y="250" as="targetPoint" />
            <Array as="points">
              <mxPoint x="-760" y="350" />
            </Array>
          </mxGeometry>
        </mxCell>
        <mxCell id="cVOPwoL7nlYSS6HuAmnp-14" value="&lt;font style=&quot;font-size: 18px;&quot;&gt;false&lt;/font&gt;" style="edgeLabel;html=1;align=center;verticalAlign=middle;resizable=0;points=[];" parent="cVOPwoL7nlYSS6HuAmnp-13" vertex="1" connectable="0">
          <mxGeometry x="-0.1447" y="-4" relative="1" as="geometry">
            <mxPoint x="-34" y="-12" as="offset" />
          </mxGeometry>
        </mxCell>
        <mxCell id="cVOPwoL7nlYSS6HuAmnp-15" value="&lt;font style=&quot;font-size: 15px;&quot;&gt;sum출력&lt;/font&gt;" style="strokeWidth=2;html=1;shape=mxgraph.flowchart.document2;whiteSpace=wrap;size=0.25;" parent="WIyWlLk6GJQsqaUBKTNV-1" vertex="1">
          <mxGeometry x="-670" y="510" width="100" height="60" as="geometry" />
        </mxCell>
        <mxCell id="cVOPwoL7nlYSS6HuAmnp-16" value="&lt;font style=&quot;font-size: 15px;&quot;&gt;종료&lt;/font&gt;" style="strokeWidth=2;html=1;shape=mxgraph.flowchart.terminator;whiteSpace=wrap;" parent="WIyWlLk6GJQsqaUBKTNV-1" vertex="1">
          <mxGeometry x="-670" y="595" width="100" height="40" as="geometry" />
        </mxCell>
        <mxCell id="cVOPwoL7nlYSS6HuAmnp-17" value="" style="endArrow=classic;html=1;rounded=0;exitX=0.5;exitY=1;exitDx=0;exitDy=0;entryX=0.5;entryY=0;entryDx=0;entryDy=0;entryPerimeter=0;" parent="WIyWlLk6GJQsqaUBKTNV-1" source="cVOPwoL7nlYSS6HuAmnp-12" target="cVOPwoL7nlYSS6HuAmnp-15" edge="1">
          <mxGeometry width="50" height="50" relative="1" as="geometry">
            <mxPoint x="-520" y="510" as="sourcePoint" />
            <mxPoint x="-470" y="460" as="targetPoint" />
          </mxGeometry>
        </mxCell>
        <mxCell id="cVOPwoL7nlYSS6HuAmnp-18" value="" style="endArrow=classic;html=1;rounded=0;exitX=0.487;exitY=0.922;exitDx=0;exitDy=0;exitPerimeter=0;entryX=0.5;entryY=0;entryDx=0;entryDy=0;entryPerimeter=0;" parent="WIyWlLk6GJQsqaUBKTNV-1" source="cVOPwoL7nlYSS6HuAmnp-15" target="cVOPwoL7nlYSS6HuAmnp-16" edge="1">
          <mxGeometry width="50" height="50" relative="1" as="geometry">
            <mxPoint x="-510" y="590" as="sourcePoint" />
            <mxPoint x="-460" y="540" as="targetPoint" />
          </mxGeometry>
        </mxCell>
        <mxCell id="cVOPwoL7nlYSS6HuAmnp-29" value="&lt;font style=&quot;font-size: 16px;&quot;&gt;1부터 10까지의 합&lt;/font&gt;" style="text;html=1;align=center;verticalAlign=middle;whiteSpace=wrap;rounded=0;" parent="WIyWlLk6GJQsqaUBKTNV-1" vertex="1">
          <mxGeometry x="-690" y="30" width="140" height="30" as="geometry" />
        </mxCell>
        <mxCell id="cVOPwoL7nlYSS6HuAmnp-30" value="&lt;span style=&quot;font-size: 16px;&quot;&gt;1부터 100중 홀수의 합&lt;/span&gt;" style="text;html=1;align=center;verticalAlign=middle;whiteSpace=wrap;rounded=0;" parent="WIyWlLk6GJQsqaUBKTNV-1" vertex="1">
          <mxGeometry x="-200" y="30" width="180" height="30" as="geometry" />
        </mxCell>
        <mxCell id="cVOPwoL7nlYSS6HuAmnp-31" value="&lt;font style=&quot;font-size: 15px;&quot;&gt;시작&lt;/font&gt;" style="strokeWidth=2;html=1;shape=mxgraph.flowchart.terminator;whiteSpace=wrap;" parent="WIyWlLk6GJQsqaUBKTNV-1" vertex="1">
          <mxGeometry x="-160" y="90" width="100" height="40" as="geometry" />
        </mxCell>
        <mxCell id="cVOPwoL7nlYSS6HuAmnp-32" value="" style="rounded=0;html=1;jettySize=auto;orthogonalLoop=1;fontSize=11;endArrow=block;endFill=0;endSize=8;strokeWidth=1;shadow=0;labelBackgroundColor=none;edgeStyle=orthogonalEdgeStyle;exitX=0.5;exitY=1;exitDx=0;exitDy=0;exitPerimeter=0;entryX=0.5;entryY=0;entryDx=0;entryDy=0;" parent="WIyWlLk6GJQsqaUBKTNV-1" source="cVOPwoL7nlYSS6HuAmnp-31" target="cVOPwoL7nlYSS6HuAmnp-33" edge="1">
          <mxGeometry relative="1" as="geometry">
            <mxPoint x="-110.70999999999998" y="160" as="sourcePoint" />
            <mxPoint x="-110" y="170" as="targetPoint" />
            <Array as="points">
              <mxPoint x="-110" y="140" />
              <mxPoint x="-110" y="140" />
            </Array>
          </mxGeometry>
        </mxCell>
        <mxCell id="cVOPwoL7nlYSS6HuAmnp-33" value="&lt;font style=&quot;font-size: 15px;&quot;&gt;i=1,&lt;/font&gt;&lt;div&gt;&lt;font style=&quot;font-size: 15px;&quot;&gt;sum=0&lt;/font&gt;&lt;/div&gt;" style="shape=hexagon;perimeter=hexagonPerimeter2;whiteSpace=wrap;html=1;fixedSize=1;" parent="WIyWlLk6GJQsqaUBKTNV-1" vertex="1">
          <mxGeometry x="-170" y="170" width="120" height="60" as="geometry" />
        </mxCell>
        <mxCell id="cVOPwoL7nlYSS6HuAmnp-34" value="&lt;font style=&quot;font-size: 15px;&quot;&gt;sum=sum+i&lt;/font&gt;" style="rounded=0;whiteSpace=wrap;html=1;" parent="WIyWlLk6GJQsqaUBKTNV-1" vertex="1">
          <mxGeometry x="-170" y="270" width="120" height="40" as="geometry" />
        </mxCell>
        <mxCell id="cVOPwoL7nlYSS6HuAmnp-36" value="&lt;font style=&quot;font-size: 15px;&quot;&gt;i&amp;gt;=100&lt;/font&gt;" style="rhombus;whiteSpace=wrap;html=1;" parent="WIyWlLk6GJQsqaUBKTNV-1" vertex="1">
          <mxGeometry x="-170" y="430" width="120" height="50" as="geometry" />
        </mxCell>
        <mxCell id="cVOPwoL7nlYSS6HuAmnp-37" value="&lt;font style=&quot;font-size: 15px;&quot;&gt;i=i+2&lt;/font&gt;" style="rounded=0;whiteSpace=wrap;html=1;" parent="WIyWlLk6GJQsqaUBKTNV-1" vertex="1">
          <mxGeometry x="-170" y="350" width="120" height="40" as="geometry" />
        </mxCell>
        <mxCell id="cVOPwoL7nlYSS6HuAmnp-38" value="&lt;font style=&quot;font-size: 15px;&quot;&gt;sum출력&lt;/font&gt;" style="strokeWidth=2;html=1;shape=mxgraph.flowchart.document2;whiteSpace=wrap;size=0.25;" parent="WIyWlLk6GJQsqaUBKTNV-1" vertex="1">
          <mxGeometry x="-160" y="510" width="100" height="60" as="geometry" />
        </mxCell>
        <mxCell id="cVOPwoL7nlYSS6HuAmnp-39" value="&lt;font style=&quot;font-size: 15px;&quot;&gt;종료&lt;/font&gt;" style="strokeWidth=2;html=1;shape=mxgraph.flowchart.terminator;whiteSpace=wrap;" parent="WIyWlLk6GJQsqaUBKTNV-1" vertex="1">
          <mxGeometry x="-160" y="595" width="100" height="40" as="geometry" />
        </mxCell>
        <mxCell id="cVOPwoL7nlYSS6HuAmnp-40" value="" style="endArrow=classic;html=1;rounded=0;exitX=0.487;exitY=0.922;exitDx=0;exitDy=0;exitPerimeter=0;entryX=0.5;entryY=0;entryDx=0;entryDy=0;entryPerimeter=0;" parent="WIyWlLk6GJQsqaUBKTNV-1" source="cVOPwoL7nlYSS6HuAmnp-38" target="cVOPwoL7nlYSS6HuAmnp-39" edge="1">
          <mxGeometry width="50" height="50" relative="1" as="geometry">
            <mxPoint x="-111" y="650" as="sourcePoint" />
            <mxPoint x="50" y="625" as="targetPoint" />
          </mxGeometry>
        </mxCell>
        <mxCell id="cVOPwoL7nlYSS6HuAmnp-41" value="" style="edgeStyle=elbowEdgeStyle;elbow=horizontal;endArrow=classic;html=1;curved=0;rounded=0;endSize=8;startSize=8;exitX=0;exitY=0.5;exitDx=0;exitDy=0;" parent="WIyWlLk6GJQsqaUBKTNV-1" source="cVOPwoL7nlYSS6HuAmnp-36" edge="1">
          <mxGeometry width="50" height="50" relative="1" as="geometry">
            <mxPoint x="-140" y="490" as="sourcePoint" />
            <mxPoint x="-130" y="250" as="targetPoint" />
            <Array as="points">
              <mxPoint x="-260" y="430" />
            </Array>
          </mxGeometry>
        </mxCell>
        <mxCell id="cVOPwoL7nlYSS6HuAmnp-42" value="&lt;font style=&quot;font-size: 18px;&quot;&gt;false&lt;/font&gt;" style="edgeLabel;html=1;align=center;verticalAlign=middle;resizable=0;points=[];" parent="cVOPwoL7nlYSS6HuAmnp-41" vertex="1" connectable="0">
          <mxGeometry x="-0.1447" y="-4" relative="1" as="geometry">
            <mxPoint x="-34" y="-14" as="offset" />
          </mxGeometry>
        </mxCell>
        <mxCell id="cVOPwoL7nlYSS6HuAmnp-48" value="" style="rounded=0;html=1;jettySize=auto;orthogonalLoop=1;fontSize=11;endArrow=block;endFill=0;endSize=8;strokeWidth=1;shadow=0;labelBackgroundColor=none;edgeStyle=orthogonalEdgeStyle;entryX=0.5;entryY=0;entryDx=0;entryDy=0;entryPerimeter=0;exitX=0.5;exitY=1;exitDx=0;exitDy=0;" parent="WIyWlLk6GJQsqaUBKTNV-1" source="cVOPwoL7nlYSS6HuAmnp-36" target="cVOPwoL7nlYSS6HuAmnp-38" edge="1">
          <mxGeometry y="20" relative="1" as="geometry">
            <mxPoint as="offset" />
            <mxPoint x="-110" y="570" as="sourcePoint" />
            <mxPoint x="-90" y="455" as="targetPoint" />
          </mxGeometry>
        </mxCell>
        <mxCell id="cVOPwoL7nlYSS6HuAmnp-51" value="" style="endArrow=classic;html=1;rounded=0;exitX=0.5;exitY=1;exitDx=0;exitDy=0;entryX=0.5;entryY=0;entryDx=0;entryDy=0;" parent="WIyWlLk6GJQsqaUBKTNV-1" source="cVOPwoL7nlYSS6HuAmnp-0" target="cVOPwoL7nlYSS6HuAmnp-6" edge="1">
          <mxGeometry width="50" height="50" relative="1" as="geometry">
            <mxPoint x="-500" y="270" as="sourcePoint" />
            <mxPoint x="-530" y="250" as="targetPoint" />
          </mxGeometry>
        </mxCell>
        <mxCell id="cVOPwoL7nlYSS6HuAmnp-52" value="" style="endArrow=classic;html=1;rounded=0;exitX=0.5;exitY=1;exitDx=0;exitDy=0;entryX=0.5;entryY=0;entryDx=0;entryDy=0;" parent="WIyWlLk6GJQsqaUBKTNV-1" source="cVOPwoL7nlYSS6HuAmnp-10" target="cVOPwoL7nlYSS6HuAmnp-12" edge="1">
          <mxGeometry width="50" height="50" relative="1" as="geometry">
            <mxPoint x="-520" y="370" as="sourcePoint" />
            <mxPoint x="-510" y="350" as="targetPoint" />
          </mxGeometry>
        </mxCell>
        <mxCell id="cVOPwoL7nlYSS6HuAmnp-53" value="" style="endArrow=classic;html=1;rounded=0;exitX=0.5;exitY=1;exitDx=0;exitDy=0;entryX=0.5;entryY=0;entryDx=0;entryDy=0;" parent="WIyWlLk6GJQsqaUBKTNV-1" source="cVOPwoL7nlYSS6HuAmnp-6" target="cVOPwoL7nlYSS6HuAmnp-10" edge="1">
          <mxGeometry width="50" height="50" relative="1" as="geometry">
            <mxPoint x="-510" y="430" as="sourcePoint" />
            <mxPoint x="-570" y="420" as="targetPoint" />
          </mxGeometry>
        </mxCell>
        <mxCell id="cVOPwoL7nlYSS6HuAmnp-54" value="" style="endArrow=classic;html=1;rounded=0;exitX=0.5;exitY=1;exitDx=0;exitDy=0;entryX=0.5;entryY=0;entryDx=0;entryDy=0;" parent="WIyWlLk6GJQsqaUBKTNV-1" source="cVOPwoL7nlYSS6HuAmnp-33" target="cVOPwoL7nlYSS6HuAmnp-34" edge="1">
          <mxGeometry width="50" height="50" relative="1" as="geometry">
            <mxPoint x="-110" y="310" as="sourcePoint" />
            <mxPoint x="-30" y="250" as="targetPoint" />
          </mxGeometry>
        </mxCell>
        <mxCell id="cVOPwoL7nlYSS6HuAmnp-55" value="" style="endArrow=classic;html=1;rounded=0;exitX=0.5;exitY=1;exitDx=0;exitDy=0;entryX=0.5;entryY=0;entryDx=0;entryDy=0;" parent="WIyWlLk6GJQsqaUBKTNV-1" source="cVOPwoL7nlYSS6HuAmnp-37" target="cVOPwoL7nlYSS6HuAmnp-36" edge="1">
          <mxGeometry width="50" height="50" relative="1" as="geometry">
            <mxPoint y="400" as="sourcePoint" />
            <mxPoint x="-40" y="330" as="targetPoint" />
          </mxGeometry>
        </mxCell>
        <mxCell id="cVOPwoL7nlYSS6HuAmnp-56" value="" style="endArrow=classic;html=1;rounded=0;exitX=0.5;exitY=1;exitDx=0;exitDy=0;entryX=0.5;entryY=0;entryDx=0;entryDy=0;" parent="WIyWlLk6GJQsqaUBKTNV-1" source="cVOPwoL7nlYSS6HuAmnp-34" target="cVOPwoL7nlYSS6HuAmnp-37" edge="1">
          <mxGeometry width="50" height="50" relative="1" as="geometry">
            <mxPoint x="10" y="490" as="sourcePoint" />
            <mxPoint x="-40" y="420" as="targetPoint" />
          </mxGeometry>
        </mxCell>
        <mxCell id="EcH2Z9gAhTrCo4bj2or8-4" value="&lt;span style=&quot;font-size: 16px;&quot;&gt;1+(1+2)+...(1+100)의 합&lt;/span&gt;" style="text;html=1;align=center;verticalAlign=middle;whiteSpace=wrap;rounded=0;" parent="WIyWlLk6GJQsqaUBKTNV-1" vertex="1">
          <mxGeometry x="300" y="30" width="180" height="30" as="geometry" />
        </mxCell>
        <mxCell id="EcH2Z9gAhTrCo4bj2or8-20" value="" style="rounded=0;html=1;jettySize=auto;orthogonalLoop=1;fontSize=11;endArrow=block;endFill=0;endSize=8;strokeWidth=1;shadow=0;labelBackgroundColor=none;edgeStyle=orthogonalEdgeStyle;exitX=0.5;exitY=1;exitDx=0;exitDy=0;exitPerimeter=0;entryX=0.5;entryY=0;entryDx=0;entryDy=0;" parent="WIyWlLk6GJQsqaUBKTNV-1" source="EcH2Z9gAhTrCo4bj2or8-23" target="EcH2Z9gAhTrCo4bj2or8-21" edge="1">
          <mxGeometry relative="1" as="geometry">
            <mxPoint x="390" y="130" as="sourcePoint" />
            <mxPoint x="390" y="180" as="targetPoint" />
          </mxGeometry>
        </mxCell>
        <mxCell id="EcH2Z9gAhTrCo4bj2or8-21" value="&lt;font style=&quot;font-size: 15px;&quot;&gt;i=0,&lt;/font&gt;&lt;div&gt;&lt;span style=&quot;font-size: 15px;&quot;&gt;j=1,&lt;br&gt;&lt;/span&gt;&lt;div&gt;&lt;font style=&quot;font-size: 15px;&quot;&gt;sum=0&lt;/font&gt;&lt;/div&gt;&lt;/div&gt;" style="shape=hexagon;perimeter=hexagonPerimeter2;whiteSpace=wrap;html=1;fixedSize=1;" parent="WIyWlLk6GJQsqaUBKTNV-1" vertex="1">
          <mxGeometry x="330" y="170" width="120" height="60" as="geometry" />
        </mxCell>
        <mxCell id="EcH2Z9gAhTrCo4bj2or8-22" value="&lt;font style=&quot;font-size: 15px;&quot;&gt;i=i+j&lt;/font&gt;" style="rounded=0;whiteSpace=wrap;html=1;" parent="WIyWlLk6GJQsqaUBKTNV-1" vertex="1">
          <mxGeometry x="330" y="350" width="120" height="40" as="geometry" />
        </mxCell>
        <mxCell id="EcH2Z9gAhTrCo4bj2or8-23" value="&lt;font style=&quot;font-size: 15px;&quot;&gt;시작&lt;/font&gt;" style="strokeWidth=2;html=1;shape=mxgraph.flowchart.terminator;whiteSpace=wrap;" parent="WIyWlLk6GJQsqaUBKTNV-1" vertex="1">
          <mxGeometry x="340" y="90" width="100" height="40" as="geometry" />
        </mxCell>
        <mxCell id="EcH2Z9gAhTrCo4bj2or8-24" value="&lt;span style=&quot;font-size: 15px;&quot;&gt;sum=i+j&lt;/span&gt;" style="rounded=0;whiteSpace=wrap;html=1;" parent="WIyWlLk6GJQsqaUBKTNV-1" vertex="1">
          <mxGeometry x="330" y="270" width="120" height="40" as="geometry" />
        </mxCell>
        <mxCell id="EcH2Z9gAhTrCo4bj2or8-32" value="" style="endArrow=classic;html=1;rounded=0;exitX=0.5;exitY=1;exitDx=0;exitDy=0;entryX=0.5;entryY=0;entryDx=0;entryDy=0;" parent="WIyWlLk6GJQsqaUBKTNV-1" source="EcH2Z9gAhTrCo4bj2or8-21" target="EcH2Z9gAhTrCo4bj2or8-24" edge="1">
          <mxGeometry width="50" height="50" relative="1" as="geometry">
            <mxPoint x="510" y="270" as="sourcePoint" />
            <mxPoint x="560" y="220" as="targetPoint" />
          </mxGeometry>
        </mxCell>
        <mxCell id="EcH2Z9gAhTrCo4bj2or8-33" value="" style="endArrow=classic;html=1;rounded=0;exitX=0.5;exitY=1;exitDx=0;exitDy=0;entryX=0.5;entryY=0;entryDx=0;entryDy=0;" parent="WIyWlLk6GJQsqaUBKTNV-1" source="EcH2Z9gAhTrCo4bj2or8-24" target="EcH2Z9gAhTrCo4bj2or8-22" edge="1">
          <mxGeometry width="50" height="50" relative="1" as="geometry">
            <mxPoint x="490" y="370" as="sourcePoint" />
            <mxPoint x="540" y="320" as="targetPoint" />
          </mxGeometry>
        </mxCell>
        <mxCell id="EcH2Z9gAhTrCo4bj2or8-35" value="&lt;font style=&quot;font-size: 15px;&quot;&gt;j=j+1&lt;/font&gt;" style="rounded=0;whiteSpace=wrap;html=1;" parent="WIyWlLk6GJQsqaUBKTNV-1" vertex="1">
          <mxGeometry x="330" y="430" width="120" height="40" as="geometry" />
        </mxCell>
        <mxCell id="EcH2Z9gAhTrCo4bj2or8-37" value="" style="endArrow=classic;html=1;rounded=0;exitX=0.5;exitY=1;exitDx=0;exitDy=0;entryX=0.5;entryY=0;entryDx=0;entryDy=0;" parent="WIyWlLk6GJQsqaUBKTNV-1" source="EcH2Z9gAhTrCo4bj2or8-22" target="EcH2Z9gAhTrCo4bj2or8-35" edge="1">
          <mxGeometry width="50" height="50" relative="1" as="geometry">
            <mxPoint x="60" y="400" as="sourcePoint" />
            <mxPoint x="60" y="440" as="targetPoint" />
          </mxGeometry>
        </mxCell>
        <mxCell id="EcH2Z9gAhTrCo4bj2or8-38" value="&lt;font style=&quot;font-size: 15px;&quot;&gt;j&amp;gt;=100&lt;/font&gt;" style="rhombus;whiteSpace=wrap;html=1;" parent="WIyWlLk6GJQsqaUBKTNV-1" vertex="1">
          <mxGeometry x="330" y="510" width="120" height="50" as="geometry" />
        </mxCell>
        <mxCell id="EcH2Z9gAhTrCo4bj2or8-39" value="" style="endArrow=classic;html=1;rounded=0;exitX=0.5;exitY=1;exitDx=0;exitDy=0;entryX=0.5;entryY=0;entryDx=0;entryDy=0;" parent="WIyWlLk6GJQsqaUBKTNV-1" source="EcH2Z9gAhTrCo4bj2or8-35" target="EcH2Z9gAhTrCo4bj2or8-38" edge="1">
          <mxGeometry width="50" height="50" relative="1" as="geometry">
            <mxPoint x="400" y="400" as="sourcePoint" />
            <mxPoint x="400" y="440" as="targetPoint" />
          </mxGeometry>
        </mxCell>
        <mxCell id="EcH2Z9gAhTrCo4bj2or8-40" value="&lt;font style=&quot;font-size: 15px;&quot;&gt;sum출력&lt;/font&gt;" style="strokeWidth=2;html=1;shape=mxgraph.flowchart.document2;whiteSpace=wrap;size=0.25;" parent="WIyWlLk6GJQsqaUBKTNV-1" vertex="1">
          <mxGeometry x="340" y="585" width="100" height="60" as="geometry" />
        </mxCell>
        <mxCell id="EcH2Z9gAhTrCo4bj2or8-41" value="" style="endArrow=classic;html=1;rounded=0;exitX=0.5;exitY=1;exitDx=0;exitDy=0;entryX=0.5;entryY=0;entryDx=0;entryDy=0;entryPerimeter=0;" parent="WIyWlLk6GJQsqaUBKTNV-1" source="EcH2Z9gAhTrCo4bj2or8-38" target="EcH2Z9gAhTrCo4bj2or8-40" edge="1">
          <mxGeometry width="50" height="50" relative="1" as="geometry">
            <mxPoint x="400" y="480" as="sourcePoint" />
            <mxPoint x="400" y="520" as="targetPoint" />
          </mxGeometry>
        </mxCell>
        <mxCell id="EcH2Z9gAhTrCo4bj2or8-42" value="&lt;font style=&quot;font-size: 15px;&quot;&gt;종료&lt;/font&gt;" style="strokeWidth=2;html=1;shape=mxgraph.flowchart.terminator;whiteSpace=wrap;" parent="WIyWlLk6GJQsqaUBKTNV-1" vertex="1">
          <mxGeometry x="340" y="670" width="100" height="40" as="geometry" />
        </mxCell>
        <mxCell id="EcH2Z9gAhTrCo4bj2or8-43" value="" style="endArrow=classic;html=1;rounded=0;exitX=0.501;exitY=0.86;exitDx=0;exitDy=0;entryX=0.5;entryY=0;entryDx=0;entryDy=0;entryPerimeter=0;exitPerimeter=0;" parent="WIyWlLk6GJQsqaUBKTNV-1" source="EcH2Z9gAhTrCo4bj2or8-40" target="EcH2Z9gAhTrCo4bj2or8-42" edge="1">
          <mxGeometry width="50" height="50" relative="1" as="geometry">
            <mxPoint x="400" y="570" as="sourcePoint" />
            <mxPoint x="400" y="595" as="targetPoint" />
          </mxGeometry>
        </mxCell>
        <mxCell id="EcH2Z9gAhTrCo4bj2or8-44" value="" style="edgeStyle=elbowEdgeStyle;elbow=horizontal;endArrow=classic;html=1;curved=0;rounded=0;endSize=8;startSize=8;exitX=0;exitY=0.5;exitDx=0;exitDy=0;" parent="WIyWlLk6GJQsqaUBKTNV-1" source="EcH2Z9gAhTrCo4bj2or8-38" edge="1">
          <mxGeometry width="50" height="50" relative="1" as="geometry">
            <mxPoint x="330" y="455" as="sourcePoint" />
            <mxPoint x="370" y="250" as="targetPoint" />
            <Array as="points">
              <mxPoint x="240" y="430" />
            </Array>
          </mxGeometry>
        </mxCell>
        <mxCell id="EcH2Z9gAhTrCo4bj2or8-45" value="&lt;font style=&quot;font-size: 18px;&quot;&gt;false&lt;/font&gt;" style="edgeLabel;html=1;align=center;verticalAlign=middle;resizable=0;points=[];" parent="EcH2Z9gAhTrCo4bj2or8-44" vertex="1" connectable="0">
          <mxGeometry x="-0.1447" y="-4" relative="1" as="geometry">
            <mxPoint x="-34" y="-31" as="offset" />
          </mxGeometry>
        </mxCell>
        <mxCell id="EcH2Z9gAhTrCo4bj2or8-50" value="자료명세표&#xa;변수  sum: 1부터 10까지의 합을 저장하는 변수&#xa;변수  i: 반복문에서 사용되는 변수 (1부터 10까지 증가)&#xa;&#xa;&#xa;처리과정&#xa;1. i = 1, sum = 0 설정반복문 실행 &#xa;(i &gt;= 10 동안 실행)&#xa;2. sum = sum + i (현재 i 값을 sum에 더함)&#xa;3. i = i + 1 (반복 변수 증가)&#xa;4. 반복 종료 후 결과 출력(sum 값을 출력)&#xa;" style="text;whiteSpace=wrap;fontSize=19;" parent="WIyWlLk6GJQsqaUBKTNV-1" vertex="1">
          <mxGeometry x="-800" y="680" width="360" height="420" as="geometry" />
        </mxCell>
        <mxCell id="EcH2Z9gAhTrCo4bj2or8-51" value="자료명세표&#xa;변수  sum: 1부터 100중 홀수의 합을 저장하는 변수&#xa;변수  i: 반복문에서 사용되는 변수 (1부터 100까지 증가)&#xa;&#xa;&#xa;처리과정&#xa;1. i = 1, sum = 0 설정반복문 실행 &#xa;(i &gt;= 100 동안 실행)&#xa;2. sum = sum + i (현재 i 값을 sum에 더함)&#xa;3. i = i + 2 (반복 변수 증가)&#xa;4. 반복 종료 후 결과 출력(sum 값을 출력)&#xa;" style="text;whiteSpace=wrap;fontSize=19;" parent="WIyWlLk6GJQsqaUBKTNV-1" vertex="1">
          <mxGeometry x="-290" y="670" width="360" height="420" as="geometry" />
        </mxCell>
        <mxCell id="EcH2Z9gAhTrCo4bj2or8-52" value="자료명세표&#xa;1. 변수 sum: 1+(1+2)...(1+100)까지의 합을 저장하는 변수&#xa;2. 변수 i: 반복문에서 사용되는 변수(j가 증가함에 따라 그거에 따라 같이 증가)&#xa;3. 변수 j: 반복문에서 사용되는 변수(1부터 100까지 증가)&#xa;&#xa;&#xa;처리과정&#xa;1. i = 0, j = 1, sum = 0 설정반복문 실행 &#xa;(j &gt;= 100 동안 실행)&#xa;2. sum= i+j(j=1이 도입)&#xa;3. i=i+j(i=1)&#xa;4. j=j+1(j=1+1이 도입)&#xa;5. 반복 종료 후 결과 출력(sum값을 출력)&#xa; " style="text;whiteSpace=wrap;fontSize=20;" parent="WIyWlLk6GJQsqaUBKTNV-1" vertex="1">
          <mxGeometry x="210" y="730" width="370" height="440" as="geometry" />
        </mxCell>
        <mxCell id="EcH2Z9gAhTrCo4bj2or8-53" value="&lt;span style=&quot;font-size: 16px;&quot;&gt;1+3+5의 등차수열에서 sum이 1000을 초과하는가를 알아보기&lt;/span&gt;" style="text;html=1;align=center;verticalAlign=middle;whiteSpace=wrap;rounded=0;" parent="WIyWlLk6GJQsqaUBKTNV-1" vertex="1">
          <mxGeometry x="801" y="35" width="440" height="30" as="geometry" />
        </mxCell>
        <mxCell id="EcH2Z9gAhTrCo4bj2or8-54" value="&lt;font style=&quot;font-size: 15px;&quot;&gt;시작&lt;/font&gt;" style="strokeWidth=2;html=1;shape=mxgraph.flowchart.terminator;whiteSpace=wrap;" parent="WIyWlLk6GJQsqaUBKTNV-1" vertex="1">
          <mxGeometry x="971" y="95" width="100" height="40" as="geometry" />
        </mxCell>
        <mxCell id="EcH2Z9gAhTrCo4bj2or8-55" value="" style="rounded=0;html=1;jettySize=auto;orthogonalLoop=1;fontSize=11;endArrow=block;endFill=0;endSize=8;strokeWidth=1;shadow=0;labelBackgroundColor=none;edgeStyle=orthogonalEdgeStyle;exitX=0.5;exitY=1;exitDx=0;exitDy=0;exitPerimeter=0;entryX=0.5;entryY=0;entryDx=0;entryDy=0;" parent="WIyWlLk6GJQsqaUBKTNV-1" source="EcH2Z9gAhTrCo4bj2or8-54" target="EcH2Z9gAhTrCo4bj2or8-56" edge="1">
          <mxGeometry relative="1" as="geometry">
            <mxPoint x="1020.29" y="165" as="sourcePoint" />
            <mxPoint x="1021" y="175" as="targetPoint" />
            <Array as="points">
              <mxPoint x="1021" y="145" />
              <mxPoint x="1021" y="145" />
            </Array>
          </mxGeometry>
        </mxCell>
        <mxCell id="EcH2Z9gAhTrCo4bj2or8-56" value="&lt;font style=&quot;font-size: 15px;&quot;&gt;i=1,&lt;/font&gt;&lt;div&gt;&lt;font style=&quot;font-size: 15px;&quot;&gt;sum=0&lt;/font&gt;&lt;/div&gt;" style="shape=hexagon;perimeter=hexagonPerimeter2;whiteSpace=wrap;html=1;fixedSize=1;" parent="WIyWlLk6GJQsqaUBKTNV-1" vertex="1">
          <mxGeometry x="961" y="175" width="120" height="60" as="geometry" />
        </mxCell>
        <mxCell id="EcH2Z9gAhTrCo4bj2or8-57" value="&lt;font style=&quot;font-size: 15px;&quot;&gt;sum=sum+i&lt;/font&gt;" style="rounded=0;whiteSpace=wrap;html=1;" parent="WIyWlLk6GJQsqaUBKTNV-1" vertex="1">
          <mxGeometry x="961" y="275" width="120" height="40" as="geometry" />
        </mxCell>
        <mxCell id="EcH2Z9gAhTrCo4bj2or8-58" value="&lt;font style=&quot;font-size: 15px;&quot;&gt;sum&amp;gt;1000&lt;/font&gt;" style="rhombus;whiteSpace=wrap;html=1;" parent="WIyWlLk6GJQsqaUBKTNV-1" vertex="1">
          <mxGeometry x="961" y="435" width="120" height="50" as="geometry" />
        </mxCell>
        <mxCell id="EcH2Z9gAhTrCo4bj2or8-59" value="&lt;font style=&quot;font-size: 15px;&quot;&gt;i=i+2&lt;/font&gt;" style="rounded=0;whiteSpace=wrap;html=1;" parent="WIyWlLk6GJQsqaUBKTNV-1" vertex="1">
          <mxGeometry x="961" y="355" width="120" height="40" as="geometry" />
        </mxCell>
        <mxCell id="EcH2Z9gAhTrCo4bj2or8-60" value="&lt;span style=&quot;font-size: 15px;&quot;&gt;i출력,&lt;/span&gt;&lt;div&gt;&lt;span style=&quot;font-size: 15px;&quot;&gt;sum출력&lt;/span&gt;&lt;/div&gt;" style="strokeWidth=2;html=1;shape=mxgraph.flowchart.document2;whiteSpace=wrap;size=0.25;" parent="WIyWlLk6GJQsqaUBKTNV-1" vertex="1">
          <mxGeometry x="961" y="515" width="120" height="80" as="geometry" />
        </mxCell>
        <mxCell id="EcH2Z9gAhTrCo4bj2or8-62" value="" style="edgeStyle=elbowEdgeStyle;elbow=horizontal;endArrow=classic;html=1;curved=0;rounded=0;endSize=8;startSize=8;exitX=0;exitY=0.5;exitDx=0;exitDy=0;" parent="WIyWlLk6GJQsqaUBKTNV-1" source="EcH2Z9gAhTrCo4bj2or8-58" edge="1">
          <mxGeometry width="50" height="50" relative="1" as="geometry">
            <mxPoint x="991" y="495" as="sourcePoint" />
            <mxPoint x="1001" y="255" as="targetPoint" />
            <Array as="points">
              <mxPoint x="871" y="435" />
            </Array>
          </mxGeometry>
        </mxCell>
        <mxCell id="EcH2Z9gAhTrCo4bj2or8-63" value="&lt;span style=&quot;font-size: 18px;&quot;&gt;false&lt;/span&gt;" style="edgeLabel;html=1;align=center;verticalAlign=middle;resizable=0;points=[];" parent="EcH2Z9gAhTrCo4bj2or8-62" vertex="1" connectable="0">
          <mxGeometry x="-0.1447" y="-4" relative="1" as="geometry">
            <mxPoint x="-48" y="-14" as="offset" />
          </mxGeometry>
        </mxCell>
        <mxCell id="EcH2Z9gAhTrCo4bj2or8-64" value="" style="rounded=0;html=1;jettySize=auto;orthogonalLoop=1;fontSize=11;endArrow=block;endFill=0;endSize=8;strokeWidth=1;shadow=0;labelBackgroundColor=none;edgeStyle=orthogonalEdgeStyle;entryX=0.5;entryY=0;entryDx=0;entryDy=0;entryPerimeter=0;exitX=0.5;exitY=1;exitDx=0;exitDy=0;" parent="WIyWlLk6GJQsqaUBKTNV-1" source="EcH2Z9gAhTrCo4bj2or8-58" target="EcH2Z9gAhTrCo4bj2or8-60" edge="1">
          <mxGeometry y="20" relative="1" as="geometry">
            <mxPoint as="offset" />
            <mxPoint x="1021" y="575" as="sourcePoint" />
            <mxPoint x="1041" y="460" as="targetPoint" />
          </mxGeometry>
        </mxCell>
        <mxCell id="EcH2Z9gAhTrCo4bj2or8-65" value="" style="endArrow=classic;html=1;rounded=0;exitX=0.5;exitY=1;exitDx=0;exitDy=0;entryX=0.5;entryY=0;entryDx=0;entryDy=0;" parent="WIyWlLk6GJQsqaUBKTNV-1" source="EcH2Z9gAhTrCo4bj2or8-56" target="EcH2Z9gAhTrCo4bj2or8-57" edge="1">
          <mxGeometry width="50" height="50" relative="1" as="geometry">
            <mxPoint x="1021" y="315" as="sourcePoint" />
            <mxPoint x="1101" y="255" as="targetPoint" />
          </mxGeometry>
        </mxCell>
        <mxCell id="EcH2Z9gAhTrCo4bj2or8-66" value="" style="endArrow=classic;html=1;rounded=0;exitX=0.5;exitY=1;exitDx=0;exitDy=0;entryX=0.5;entryY=0;entryDx=0;entryDy=0;" parent="WIyWlLk6GJQsqaUBKTNV-1" source="EcH2Z9gAhTrCo4bj2or8-59" target="EcH2Z9gAhTrCo4bj2or8-58" edge="1">
          <mxGeometry width="50" height="50" relative="1" as="geometry">
            <mxPoint x="1131" y="405" as="sourcePoint" />
            <mxPoint x="1091" y="335" as="targetPoint" />
          </mxGeometry>
        </mxCell>
        <mxCell id="EcH2Z9gAhTrCo4bj2or8-67" value="" style="endArrow=classic;html=1;rounded=0;exitX=0.5;exitY=1;exitDx=0;exitDy=0;entryX=0.5;entryY=0;entryDx=0;entryDy=0;" parent="WIyWlLk6GJQsqaUBKTNV-1" source="EcH2Z9gAhTrCo4bj2or8-57" target="EcH2Z9gAhTrCo4bj2or8-59" edge="1">
          <mxGeometry width="50" height="50" relative="1" as="geometry">
            <mxPoint x="1141" y="495" as="sourcePoint" />
            <mxPoint x="1091" y="425" as="targetPoint" />
          </mxGeometry>
        </mxCell>
        <mxCell id="EcH2Z9gAhTrCo4bj2or8-68" value="" style="endArrow=classic;html=1;rounded=0;fontSize=12;startSize=8;endSize=8;curved=1;exitX=0.482;exitY=0.936;exitDx=0;exitDy=0;exitPerimeter=0;entryX=0.5;entryY=0;entryDx=0;entryDy=0;entryPerimeter=0;" parent="WIyWlLk6GJQsqaUBKTNV-1" source="EcH2Z9gAhTrCo4bj2or8-60" target="EcH2Z9gAhTrCo4bj2or8-69" edge="1">
          <mxGeometry width="50" height="50" relative="1" as="geometry">
            <mxPoint x="1131" y="635" as="sourcePoint" />
            <mxPoint x="1019" y="635" as="targetPoint" />
          </mxGeometry>
        </mxCell>
        <mxCell id="EcH2Z9gAhTrCo4bj2or8-69" value="&lt;font style=&quot;font-size: 15px;&quot;&gt;종료&lt;/font&gt;" style="strokeWidth=2;html=1;shape=mxgraph.flowchart.terminator;whiteSpace=wrap;" parent="WIyWlLk6GJQsqaUBKTNV-1" vertex="1">
          <mxGeometry x="971" y="640" width="100" height="40" as="geometry" />
        </mxCell>
        <mxCell id="EcH2Z9gAhTrCo4bj2or8-79" value="자료명세표&#xa;변수 sum : 1부터 2씩 증가하는 등차수열합에서 합이 1000을 초과하는 순간을 구하는 변수&#xa;변수 i : 반복문에서 사용하는 변수(sum이 1000을 초과할때까지 반복)&#xa;&#xa;처리과정&#xa;변수초기화&#xa;i=1, sum=0 설정반복문 실행&#xa;(sum&gt;1000 까지 실행)&#xa;sum = sum+i(현재 i값을 sum에 더함)&#xa;i = i+2(반복변수 2씩 증가)&#xa;반복 종료 후 결과 출력&#xa;sum 값을 출력" style="text;whiteSpace=wrap;fontSize=19;" parent="WIyWlLk6GJQsqaUBKTNV-1" vertex="1">
          <mxGeometry x="841" y="730" width="360" height="420" as="geometry" />
        </mxCell>
        <mxCell id="EcH2Z9gAhTrCo4bj2or8-80" value="&lt;span style=&quot;font-size: 16px;&quot;&gt;100개의 수가 입력될 때 양수의 개수와 음수의 개수를 구하고 양수 중에서 홀수와 짝수의 개수도 구하시오&lt;/span&gt;" style="text;html=1;align=center;verticalAlign=middle;whiteSpace=wrap;rounded=0;" parent="WIyWlLk6GJQsqaUBKTNV-1" vertex="1">
          <mxGeometry x="1800" y="60" width="440" height="30" as="geometry" />
        </mxCell>
        <mxCell id="EcH2Z9gAhTrCo4bj2or8-81" value="&lt;font style=&quot;font-size: 15px;&quot;&gt;시작&lt;/font&gt;" style="strokeWidth=2;html=1;shape=mxgraph.flowchart.terminator;whiteSpace=wrap;" parent="WIyWlLk6GJQsqaUBKTNV-1" vertex="1">
          <mxGeometry x="1970" y="120" width="100" height="40" as="geometry" />
        </mxCell>
        <mxCell id="EcH2Z9gAhTrCo4bj2or8-82" value="" style="rounded=0;html=1;jettySize=auto;orthogonalLoop=1;fontSize=11;endArrow=block;endFill=0;endSize=8;strokeWidth=1;shadow=0;labelBackgroundColor=none;edgeStyle=orthogonalEdgeStyle;exitX=0.5;exitY=1;exitDx=0;exitDy=0;exitPerimeter=0;entryX=0.5;entryY=0;entryDx=0;entryDy=0;" parent="WIyWlLk6GJQsqaUBKTNV-1" source="EcH2Z9gAhTrCo4bj2or8-81" target="EcH2Z9gAhTrCo4bj2or8-83" edge="1">
          <mxGeometry relative="1" as="geometry">
            <mxPoint x="2019.29" y="190" as="sourcePoint" />
            <mxPoint x="2080" y="195" as="targetPoint" />
            <Array as="points" />
          </mxGeometry>
        </mxCell>
        <mxCell id="EcH2Z9gAhTrCo4bj2or8-83" value="&lt;div&gt;&lt;font style=&quot;font-size: 15px;&quot;&gt;i=1&lt;/font&gt;&lt;/div&gt;&lt;div&gt;&lt;font style=&quot;font-size: 15px;&quot;&gt;positive=0&lt;/font&gt;&lt;/div&gt;&lt;div&gt;&lt;font style=&quot;font-size: 15px;&quot;&gt;negative=0&lt;/font&gt;&lt;/div&gt;&lt;div&gt;&lt;font style=&quot;font-size: 15px;&quot;&gt;even=0&lt;/font&gt;&lt;/div&gt;&lt;div&gt;&lt;font style=&quot;font-size: 15px;&quot;&gt;odd=0&lt;/font&gt;&lt;/div&gt;&lt;div&gt;&lt;font style=&quot;font-size: 15px;&quot;&gt;num&lt;/font&gt;&lt;/div&gt;" style="shape=hexagon;perimeter=hexagonPerimeter2;whiteSpace=wrap;html=1;fixedSize=1;" parent="WIyWlLk6GJQsqaUBKTNV-1" vertex="1">
          <mxGeometry x="1930" y="200" width="180" height="110" as="geometry" />
        </mxCell>
        <mxCell id="EcH2Z9gAhTrCo4bj2or8-84" value="&lt;font style=&quot;font-size: 15px;&quot;&gt;num&lt;/font&gt;" style="html=1;strokeWidth=2;shape=manualInput;whiteSpace=wrap;rounded=1;size=26;arcSize=11;" parent="WIyWlLk6GJQsqaUBKTNV-1" vertex="1">
          <mxGeometry x="1970" y="355" width="100" height="60" as="geometry" />
        </mxCell>
        <mxCell id="EcH2Z9gAhTrCo4bj2or8-86" value="" style="endArrow=classic;html=1;rounded=0;fontSize=12;startSize=8;endSize=8;curved=1;exitX=0.5;exitY=1;exitDx=0;exitDy=0;entryX=0.5;entryY=0;entryDx=0;entryDy=0;" parent="WIyWlLk6GJQsqaUBKTNV-1" source="EcH2Z9gAhTrCo4bj2or8-83" target="EcH2Z9gAhTrCo4bj2or8-84" edge="1">
          <mxGeometry width="50" height="50" relative="1" as="geometry">
            <mxPoint x="1850" y="405" as="sourcePoint" />
            <mxPoint x="1900" y="355" as="targetPoint" />
          </mxGeometry>
        </mxCell>
        <mxCell id="EcH2Z9gAhTrCo4bj2or8-87" value="&lt;span style=&quot;font-size: 15px;&quot;&gt;num&amp;gt;0&lt;/span&gt;" style="rhombus;whiteSpace=wrap;html=1;" parent="WIyWlLk6GJQsqaUBKTNV-1" vertex="1">
          <mxGeometry x="1610" y="480" width="120" height="50" as="geometry" />
        </mxCell>
        <mxCell id="EcH2Z9gAhTrCo4bj2or8-89" value="&lt;font style=&quot;font-size: 15px;&quot;&gt;positive=positive+1&lt;/font&gt;" style="rounded=0;whiteSpace=wrap;html=1;" parent="WIyWlLk6GJQsqaUBKTNV-1" vertex="1">
          <mxGeometry x="1590" y="575" width="160" height="40" as="geometry" />
        </mxCell>
        <mxCell id="EcH2Z9gAhTrCo4bj2or8-90" value="&lt;span style=&quot;font-size: 15px;&quot;&gt;num&amp;lt;0&lt;/span&gt;" style="rhombus;whiteSpace=wrap;html=1;" parent="WIyWlLk6GJQsqaUBKTNV-1" vertex="1">
          <mxGeometry x="1830" y="480" width="120" height="50" as="geometry" />
        </mxCell>
        <mxCell id="EcH2Z9gAhTrCo4bj2or8-91" value="&lt;font style=&quot;font-size: 15px;&quot;&gt;negative=nagative+1&lt;/font&gt;" style="rounded=0;whiteSpace=wrap;html=1;" parent="WIyWlLk6GJQsqaUBKTNV-1" vertex="1">
          <mxGeometry x="1810" y="575" width="160" height="40" as="geometry" />
        </mxCell>
        <mxCell id="EcH2Z9gAhTrCo4bj2or8-93" value="&lt;span style=&quot;font-size: 15px;&quot;&gt;num%2=0&lt;/span&gt;" style="rhombus;whiteSpace=wrap;html=1;" parent="WIyWlLk6GJQsqaUBKTNV-1" vertex="1">
          <mxGeometry x="2090" y="480" width="120" height="50" as="geometry" />
        </mxCell>
        <mxCell id="EcH2Z9gAhTrCo4bj2or8-94" value="&lt;font style=&quot;font-size: 15px;&quot;&gt;even=even+1&lt;/font&gt;" style="rounded=0;whiteSpace=wrap;html=1;" parent="WIyWlLk6GJQsqaUBKTNV-1" vertex="1">
          <mxGeometry x="2070" y="575" width="160" height="40" as="geometry" />
        </mxCell>
        <mxCell id="EcH2Z9gAhTrCo4bj2or8-95" value="&lt;span style=&quot;font-size: 15px;&quot;&gt;num%2=1&lt;/span&gt;" style="rhombus;whiteSpace=wrap;html=1;" parent="WIyWlLk6GJQsqaUBKTNV-1" vertex="1">
          <mxGeometry x="2310" y="480" width="120" height="50" as="geometry" />
        </mxCell>
        <mxCell id="EcH2Z9gAhTrCo4bj2or8-96" value="&lt;span style=&quot;font-size: 15px;&quot;&gt;odd=odd+1&lt;/span&gt;" style="rounded=0;whiteSpace=wrap;html=1;" parent="WIyWlLk6GJQsqaUBKTNV-1" vertex="1">
          <mxGeometry x="2290" y="575" width="160" height="40" as="geometry" />
        </mxCell>
        <mxCell id="EcH2Z9gAhTrCo4bj2or8-97" value="&lt;span style=&quot;font-size: 15px;&quot;&gt;i&amp;gt;=100&lt;/span&gt;" style="rhombus;whiteSpace=wrap;html=1;" parent="WIyWlLk6GJQsqaUBKTNV-1" vertex="1">
          <mxGeometry x="1960" y="810" width="120" height="50" as="geometry" />
        </mxCell>
        <mxCell id="EcH2Z9gAhTrCo4bj2or8-98" value="&lt;font style=&quot;font-size: 15px;&quot;&gt;i=i+1&lt;/font&gt;" style="rounded=0;whiteSpace=wrap;html=1;" parent="WIyWlLk6GJQsqaUBKTNV-1" vertex="1">
          <mxGeometry x="1940" y="730" width="160" height="40" as="geometry" />
        </mxCell>
        <mxCell id="EcH2Z9gAhTrCo4bj2or8-99" value="" style="endArrow=classic;html=1;rounded=0;fontSize=12;startSize=8;endSize=8;curved=1;exitX=0.5;exitY=1;exitDx=0;exitDy=0;entryX=0.5;entryY=0;entryDx=0;entryDy=0;" parent="WIyWlLk6GJQsqaUBKTNV-1" source="EcH2Z9gAhTrCo4bj2or8-87" target="EcH2Z9gAhTrCo4bj2or8-89" edge="1">
          <mxGeometry width="50" height="50" relative="1" as="geometry">
            <mxPoint x="1720" y="430" as="sourcePoint" />
            <mxPoint x="1770" y="380" as="targetPoint" />
          </mxGeometry>
        </mxCell>
        <mxCell id="EcH2Z9gAhTrCo4bj2or8-100" value="" style="endArrow=classic;html=1;rounded=0;fontSize=12;startSize=8;endSize=8;curved=1;exitX=0.5;exitY=1;exitDx=0;exitDy=0;entryX=0.5;entryY=0;entryDx=0;entryDy=0;" parent="WIyWlLk6GJQsqaUBKTNV-1" source="EcH2Z9gAhTrCo4bj2or8-90" target="EcH2Z9gAhTrCo4bj2or8-91" edge="1">
          <mxGeometry width="50" height="50" relative="1" as="geometry">
            <mxPoint x="1680" y="540" as="sourcePoint" />
            <mxPoint x="1680" y="585" as="targetPoint" />
          </mxGeometry>
        </mxCell>
        <mxCell id="EcH2Z9gAhTrCo4bj2or8-101" value="" style="endArrow=classic;html=1;rounded=0;fontSize=12;startSize=8;endSize=8;curved=1;exitX=0.5;exitY=1;exitDx=0;exitDy=0;entryX=0.5;entryY=0;entryDx=0;entryDy=0;" parent="WIyWlLk6GJQsqaUBKTNV-1" source="EcH2Z9gAhTrCo4bj2or8-93" target="EcH2Z9gAhTrCo4bj2or8-94" edge="1">
          <mxGeometry width="50" height="50" relative="1" as="geometry">
            <mxPoint x="1900" y="540" as="sourcePoint" />
            <mxPoint x="1900" y="585" as="targetPoint" />
          </mxGeometry>
        </mxCell>
        <mxCell id="EcH2Z9gAhTrCo4bj2or8-102" value="" style="endArrow=classic;html=1;rounded=0;fontSize=12;startSize=8;endSize=8;curved=1;exitX=0.5;exitY=1;exitDx=0;exitDy=0;entryX=0.5;entryY=0;entryDx=0;entryDy=0;" parent="WIyWlLk6GJQsqaUBKTNV-1" source="EcH2Z9gAhTrCo4bj2or8-95" target="EcH2Z9gAhTrCo4bj2or8-96" edge="1">
          <mxGeometry width="50" height="50" relative="1" as="geometry">
            <mxPoint x="2160" y="540" as="sourcePoint" />
            <mxPoint x="2160" y="585" as="targetPoint" />
          </mxGeometry>
        </mxCell>
        <mxCell id="EcH2Z9gAhTrCo4bj2or8-106" value="" style="edgeStyle=elbowEdgeStyle;elbow=vertical;endArrow=classic;html=1;curved=0;rounded=0;endSize=8;startSize=8;fontSize=12;entryX=0.5;entryY=0;entryDx=0;entryDy=0;exitX=0.5;exitY=1;exitDx=0;exitDy=0;" parent="WIyWlLk6GJQsqaUBKTNV-1" source="EcH2Z9gAhTrCo4bj2or8-84" target="EcH2Z9gAhTrCo4bj2or8-90" edge="1">
          <mxGeometry width="50" height="50" relative="1" as="geometry">
            <mxPoint x="1970" y="415" as="sourcePoint" />
            <mxPoint x="1670" y="482.5" as="targetPoint" />
            <Array as="points" />
          </mxGeometry>
        </mxCell>
        <mxCell id="EcH2Z9gAhTrCo4bj2or8-107" value="" style="edgeStyle=elbowEdgeStyle;elbow=vertical;endArrow=classic;html=1;curved=0;rounded=0;endSize=8;startSize=8;fontSize=12;exitX=0.5;exitY=1;exitDx=0;exitDy=0;entryX=0.5;entryY=0;entryDx=0;entryDy=0;" parent="WIyWlLk6GJQsqaUBKTNV-1" source="EcH2Z9gAhTrCo4bj2or8-84" target="EcH2Z9gAhTrCo4bj2or8-87" edge="1">
          <mxGeometry width="50" height="50" relative="1" as="geometry">
            <mxPoint x="1760" y="470" as="sourcePoint" />
            <mxPoint x="1810" y="420" as="targetPoint" />
          </mxGeometry>
        </mxCell>
        <mxCell id="EcH2Z9gAhTrCo4bj2or8-109" value="" style="edgeStyle=elbowEdgeStyle;elbow=vertical;endArrow=classic;html=1;curved=0;rounded=0;endSize=8;startSize=8;fontSize=12;exitX=0.5;exitY=1;exitDx=0;exitDy=0;entryX=0.5;entryY=0;entryDx=0;entryDy=0;" parent="WIyWlLk6GJQsqaUBKTNV-1" source="EcH2Z9gAhTrCo4bj2or8-84" target="EcH2Z9gAhTrCo4bj2or8-95" edge="1">
          <mxGeometry width="50" height="50" relative="1" as="geometry">
            <mxPoint x="2030" y="425" as="sourcePoint" />
            <mxPoint x="1680" y="490" as="targetPoint" />
          </mxGeometry>
        </mxCell>
        <mxCell id="EcH2Z9gAhTrCo4bj2or8-110" value="" style="edgeStyle=elbowEdgeStyle;elbow=vertical;endArrow=classic;html=1;curved=0;rounded=0;endSize=8;startSize=8;fontSize=12;entryX=0.5;entryY=0;entryDx=0;entryDy=0;exitX=0.5;exitY=1;exitDx=0;exitDy=0;" parent="WIyWlLk6GJQsqaUBKTNV-1" source="EcH2Z9gAhTrCo4bj2or8-84" target="EcH2Z9gAhTrCo4bj2or8-93" edge="1">
          <mxGeometry width="50" height="50" relative="1" as="geometry">
            <mxPoint x="2030" y="425" as="sourcePoint" />
            <mxPoint x="1900" y="490" as="targetPoint" />
            <Array as="points" />
          </mxGeometry>
        </mxCell>
        <mxCell id="EcH2Z9gAhTrCo4bj2or8-111" value="" style="endArrow=classic;html=1;rounded=0;fontSize=12;startSize=8;endSize=8;curved=1;exitX=0.5;exitY=1;exitDx=0;exitDy=0;entryX=0.5;entryY=0;entryDx=0;entryDy=0;" parent="WIyWlLk6GJQsqaUBKTNV-1" source="EcH2Z9gAhTrCo4bj2or8-89" target="EcH2Z9gAhTrCo4bj2or8-98" edge="1">
          <mxGeometry width="50" height="50" relative="1" as="geometry">
            <mxPoint x="1730" y="710" as="sourcePoint" />
            <mxPoint x="1780" y="660" as="targetPoint" />
          </mxGeometry>
        </mxCell>
        <mxCell id="EcH2Z9gAhTrCo4bj2or8-112" value="" style="endArrow=classic;html=1;rounded=0;fontSize=12;startSize=8;endSize=8;curved=1;exitX=0.5;exitY=1;exitDx=0;exitDy=0;entryX=0.5;entryY=0;entryDx=0;entryDy=0;" parent="WIyWlLk6GJQsqaUBKTNV-1" source="EcH2Z9gAhTrCo4bj2or8-91" target="EcH2Z9gAhTrCo4bj2or8-98" edge="1">
          <mxGeometry width="50" height="50" relative="1" as="geometry">
            <mxPoint x="1680" y="625" as="sourcePoint" />
            <mxPoint x="2030" y="740" as="targetPoint" />
          </mxGeometry>
        </mxCell>
        <mxCell id="EcH2Z9gAhTrCo4bj2or8-113" value="" style="endArrow=classic;html=1;rounded=0;fontSize=12;startSize=8;endSize=8;curved=1;exitX=0.5;exitY=1;exitDx=0;exitDy=0;entryX=0.5;entryY=0;entryDx=0;entryDy=0;" parent="WIyWlLk6GJQsqaUBKTNV-1" source="EcH2Z9gAhTrCo4bj2or8-94" target="EcH2Z9gAhTrCo4bj2or8-98" edge="1">
          <mxGeometry width="50" height="50" relative="1" as="geometry">
            <mxPoint x="1690" y="635" as="sourcePoint" />
            <mxPoint x="2040" y="750" as="targetPoint" />
          </mxGeometry>
        </mxCell>
        <mxCell id="EcH2Z9gAhTrCo4bj2or8-114" value="" style="endArrow=classic;html=1;rounded=0;fontSize=12;startSize=8;endSize=8;curved=1;exitX=0.5;exitY=1;exitDx=0;exitDy=0;entryX=0.5;entryY=0;entryDx=0;entryDy=0;" parent="WIyWlLk6GJQsqaUBKTNV-1" source="EcH2Z9gAhTrCo4bj2or8-96" target="EcH2Z9gAhTrCo4bj2or8-98" edge="1">
          <mxGeometry width="50" height="50" relative="1" as="geometry">
            <mxPoint x="2160" y="625" as="sourcePoint" />
            <mxPoint x="2030" y="740" as="targetPoint" />
          </mxGeometry>
        </mxCell>
        <mxCell id="EcH2Z9gAhTrCo4bj2or8-115" value="" style="endArrow=classic;html=1;rounded=0;fontSize=12;startSize=8;endSize=8;curved=1;exitX=0.5;exitY=1;exitDx=0;exitDy=0;entryX=0.5;entryY=0;entryDx=0;entryDy=0;" parent="WIyWlLk6GJQsqaUBKTNV-1" source="EcH2Z9gAhTrCo4bj2or8-98" target="EcH2Z9gAhTrCo4bj2or8-97" edge="1">
          <mxGeometry width="50" height="50" relative="1" as="geometry">
            <mxPoint x="1880" y="850" as="sourcePoint" />
            <mxPoint x="1930" y="800" as="targetPoint" />
          </mxGeometry>
        </mxCell>
        <mxCell id="EcH2Z9gAhTrCo4bj2or8-116" value="&lt;span style=&quot;font-size: 15px;&quot;&gt;positive 출력&lt;/span&gt;&lt;div&gt;&lt;span style=&quot;font-size: 15px;&quot;&gt;negative 출력&lt;/span&gt;&lt;span style=&quot;font-size: 15px;&quot;&gt;&lt;/span&gt;&lt;/div&gt;&lt;div&gt;&lt;span style=&quot;font-size: 15px;&quot;&gt;even 출력&lt;/span&gt;&lt;span style=&quot;font-size: 15px;&quot;&gt;&lt;/span&gt;&lt;/div&gt;&lt;div&gt;&lt;span style=&quot;font-size: 15px;&quot;&gt;odd 출력&lt;/span&gt;&lt;span style=&quot;font-size: 15px;&quot;&gt;&lt;/span&gt;&lt;/div&gt;" style="strokeWidth=2;html=1;shape=mxgraph.flowchart.document2;whiteSpace=wrap;size=0.25;" parent="WIyWlLk6GJQsqaUBKTNV-1" vertex="1">
          <mxGeometry x="1927.5" y="910" width="185" height="150" as="geometry" />
        </mxCell>
        <mxCell id="EcH2Z9gAhTrCo4bj2or8-117" value="" style="endArrow=classic;html=1;rounded=0;fontSize=12;startSize=8;endSize=8;curved=1;exitX=0.5;exitY=1;exitDx=0;exitDy=0;entryX=0.5;entryY=0;entryDx=0;entryDy=0;entryPerimeter=0;" parent="WIyWlLk6GJQsqaUBKTNV-1" source="EcH2Z9gAhTrCo4bj2or8-97" target="EcH2Z9gAhTrCo4bj2or8-116" edge="1">
          <mxGeometry width="50" height="50" relative="1" as="geometry">
            <mxPoint x="1800" y="930" as="sourcePoint" />
            <mxPoint x="1850" y="880" as="targetPoint" />
          </mxGeometry>
        </mxCell>
        <mxCell id="EcH2Z9gAhTrCo4bj2or8-119" value="" style="endArrow=classic;html=1;rounded=0;fontSize=12;startSize=8;endSize=8;curved=1;exitX=0.505;exitY=0.876;exitDx=0;exitDy=0;exitPerimeter=0;entryX=0.5;entryY=0;entryDx=0;entryDy=0;entryPerimeter=0;" parent="WIyWlLk6GJQsqaUBKTNV-1" source="EcH2Z9gAhTrCo4bj2or8-116" target="EcH2Z9gAhTrCo4bj2or8-120" edge="1">
          <mxGeometry width="50" height="50" relative="1" as="geometry">
            <mxPoint x="2018" y="1070" as="sourcePoint" />
            <mxPoint x="2018" y="1115" as="targetPoint" />
          </mxGeometry>
        </mxCell>
        <mxCell id="EcH2Z9gAhTrCo4bj2or8-120" value="&lt;font style=&quot;font-size: 15px;&quot;&gt;종료&lt;/font&gt;" style="strokeWidth=2;html=1;shape=mxgraph.flowchart.terminator;whiteSpace=wrap;" parent="WIyWlLk6GJQsqaUBKTNV-1" vertex="1">
          <mxGeometry x="1970" y="1120" width="100" height="40" as="geometry" />
        </mxCell>
        <mxCell id="EcH2Z9gAhTrCo4bj2or8-121" value="" style="edgeStyle=elbowEdgeStyle;elbow=horizontal;endArrow=classic;html=1;curved=0;rounded=0;endSize=8;startSize=8;exitX=0;exitY=0.5;exitDx=0;exitDy=0;" parent="WIyWlLk6GJQsqaUBKTNV-1" source="EcH2Z9gAhTrCo4bj2or8-97" edge="1">
          <mxGeometry width="50" height="50" relative="1" as="geometry">
            <mxPoint x="1614" y="852.5" as="sourcePoint" />
            <mxPoint x="2000" y="330" as="targetPoint" />
            <Array as="points">
              <mxPoint x="1524" y="827.5" />
            </Array>
          </mxGeometry>
        </mxCell>
        <mxCell id="EcH2Z9gAhTrCo4bj2or8-122" value="&lt;font style=&quot;font-size: 20px;&quot;&gt;false&lt;/font&gt;" style="edgeLabel;html=1;align=center;verticalAlign=middle;resizable=0;points=[];" parent="EcH2Z9gAhTrCo4bj2or8-121" vertex="1" connectable="0">
          <mxGeometry x="-0.1447" y="-4" relative="1" as="geometry">
            <mxPoint x="-58" y="-90" as="offset" />
          </mxGeometry>
        </mxCell>
        <mxCell id="EcH2Z9gAhTrCo4bj2or8-123" value="자료명세표&#xa;num : 숫자를 입력받는 변수&#xa;변수 i : 숫자를 입력받는 숫자의 양을 나타내는 변수&#xa;변수 positive : num에 입력된 양수의 숫자를 나타내는 변수&#xa;변수 negative : num에 입력된 음수의 숫자를 나타내는 변수&#xa;변수 even : num에 입력된 짝수의 숫자를 나타내는 변수&#xa;변수 odd : num에 입력된 홀수의 숫자를 나타내는 변수&#xa;&#xa;&#xa;처리과정&#xa;1. num에서 랜덤숫자를 입력받는다&#xa;2. num이 양수,음수,짝수,홀수 총 4가지로 확인해보고 그거에 맞는 조건이면 각각의 변수가 1씩 증가&#xa;3. i변수가 1씩 증가&#xa;4. 초기화(i&gt;=100까지 반복)&#xa;5. 변수 positive, negative, even, odd 출력&#xa;6. 종료&#xa;&#xa; " style="text;whiteSpace=wrap;fontSize=19;" parent="WIyWlLk6GJQsqaUBKTNV-1" vertex="1">
          <mxGeometry x="1600" y="1210" width="840" height="420" as="geometry" />
        </mxCell>
        <mxCell id="EcH2Z9gAhTrCo4bj2or8-124" value="&lt;span style=&quot;font-size: 16px;&quot;&gt;1000개의 수를 읽어 평균을 계산하여 합과 평균을 출력하는 순서도를 작성하시오&lt;/span&gt;" style="text;html=1;align=center;verticalAlign=middle;whiteSpace=wrap;rounded=0;" parent="WIyWlLk6GJQsqaUBKTNV-1" vertex="1">
          <mxGeometry x="2800" y="65" width="440" height="30" as="geometry" />
        </mxCell>
        <mxCell id="EcH2Z9gAhTrCo4bj2or8-125" value="&lt;font style=&quot;font-size: 15px;&quot;&gt;시작&lt;/font&gt;" style="strokeWidth=2;html=1;shape=mxgraph.flowchart.terminator;whiteSpace=wrap;" parent="WIyWlLk6GJQsqaUBKTNV-1" vertex="1">
          <mxGeometry x="2970" y="120" width="100" height="40" as="geometry" />
        </mxCell>
        <mxCell id="EcH2Z9gAhTrCo4bj2or8-126" value="" style="rounded=0;html=1;jettySize=auto;orthogonalLoop=1;fontSize=11;endArrow=block;endFill=0;endSize=8;strokeWidth=1;shadow=0;labelBackgroundColor=none;edgeStyle=orthogonalEdgeStyle;exitX=0.5;exitY=1;exitDx=0;exitDy=0;exitPerimeter=0;entryX=0.5;entryY=0;entryDx=0;entryDy=0;" parent="WIyWlLk6GJQsqaUBKTNV-1" source="EcH2Z9gAhTrCo4bj2or8-125" target="EcH2Z9gAhTrCo4bj2or8-127" edge="1">
          <mxGeometry relative="1" as="geometry">
            <mxPoint x="2030" y="170" as="sourcePoint" />
            <mxPoint x="3020" y="220" as="targetPoint" />
            <Array as="points" />
          </mxGeometry>
        </mxCell>
        <mxCell id="EcH2Z9gAhTrCo4bj2or8-127" value="&lt;span style=&quot;font-size: 15px;&quot;&gt;average = 0&lt;/span&gt;&lt;div&gt;&lt;span style=&quot;font-size: 15px;&quot;&gt;sum=0&lt;/span&gt;&lt;/div&gt;&lt;div&gt;&lt;span style=&quot;font-size: 15px;&quot;&gt;i=0&lt;/span&gt;&lt;/div&gt;&lt;div&gt;&lt;span style=&quot;font-size: 15px;&quot;&gt;max=1000&lt;/span&gt;&lt;/div&gt;" style="shape=hexagon;perimeter=hexagonPerimeter2;whiteSpace=wrap;html=1;fixedSize=1;" parent="WIyWlLk6GJQsqaUBKTNV-1" vertex="1">
          <mxGeometry x="2945" y="220" width="150" height="70" as="geometry" />
        </mxCell>
        <mxCell id="EcH2Z9gAhTrCo4bj2or8-128" value="&lt;font style=&quot;font-size: 15px;&quot;&gt;num&lt;/font&gt;" style="html=1;strokeWidth=2;shape=manualInput;whiteSpace=wrap;rounded=1;size=26;arcSize=11;" parent="WIyWlLk6GJQsqaUBKTNV-1" vertex="1">
          <mxGeometry x="2970" y="330" width="100" height="60" as="geometry" />
        </mxCell>
        <mxCell id="EcH2Z9gAhTrCo4bj2or8-129" value="" style="rounded=0;html=1;jettySize=auto;orthogonalLoop=1;fontSize=11;endArrow=block;endFill=0;endSize=8;strokeWidth=1;shadow=0;labelBackgroundColor=none;edgeStyle=orthogonalEdgeStyle;entryX=0.503;entryY=0.163;entryDx=0;entryDy=0;entryPerimeter=0;exitX=0.5;exitY=1;exitDx=0;exitDy=0;" parent="WIyWlLk6GJQsqaUBKTNV-1" source="EcH2Z9gAhTrCo4bj2or8-127" target="EcH2Z9gAhTrCo4bj2or8-128" edge="1">
          <mxGeometry relative="1" as="geometry">
            <mxPoint x="3110" y="310" as="sourcePoint" />
            <mxPoint x="3030" y="230" as="targetPoint" />
            <Array as="points" />
          </mxGeometry>
        </mxCell>
        <mxCell id="EcH2Z9gAhTrCo4bj2or8-130" value="&lt;font style=&quot;font-size: 15px;&quot;&gt;i=i+1&lt;/font&gt;" style="rounded=0;whiteSpace=wrap;html=1;" parent="WIyWlLk6GJQsqaUBKTNV-1" vertex="1">
          <mxGeometry x="2940" y="430" width="160" height="40" as="geometry" />
        </mxCell>
        <mxCell id="EcH2Z9gAhTrCo4bj2or8-131" value="" style="rounded=0;html=1;jettySize=auto;orthogonalLoop=1;fontSize=11;endArrow=block;endFill=0;endSize=8;strokeWidth=1;shadow=0;labelBackgroundColor=none;edgeStyle=orthogonalEdgeStyle;exitX=0.5;exitY=1;exitDx=0;exitDy=0;entryX=0.5;entryY=0;entryDx=0;entryDy=0;" parent="WIyWlLk6GJQsqaUBKTNV-1" source="EcH2Z9gAhTrCo4bj2or8-128" target="EcH2Z9gAhTrCo4bj2or8-130" edge="1">
          <mxGeometry relative="1" as="geometry">
            <mxPoint x="3030" y="300" as="sourcePoint" />
            <mxPoint x="3030" y="360" as="targetPoint" />
            <Array as="points" />
          </mxGeometry>
        </mxCell>
        <mxCell id="EcH2Z9gAhTrCo4bj2or8-133" value="&lt;span style=&quot;font-size: 15px;&quot;&gt;i&amp;gt;=max&lt;/span&gt;" style="rhombus;whiteSpace=wrap;html=1;" parent="WIyWlLk6GJQsqaUBKTNV-1" vertex="1">
          <mxGeometry x="2960" y="595" width="120" height="50" as="geometry" />
        </mxCell>
        <mxCell id="EcH2Z9gAhTrCo4bj2or8-134" value="" style="rounded=0;html=1;jettySize=auto;orthogonalLoop=1;fontSize=11;endArrow=block;endFill=0;endSize=8;strokeWidth=1;shadow=0;labelBackgroundColor=none;edgeStyle=orthogonalEdgeStyle;exitX=0.5;exitY=1;exitDx=0;exitDy=0;entryX=0.5;entryY=0;entryDx=0;entryDy=0;" parent="WIyWlLk6GJQsqaUBKTNV-1" source="EcH2Z9gAhTrCo4bj2or8-130" target="EcH2Z9gAhTrCo4bj2or8-137" edge="1">
          <mxGeometry relative="1" as="geometry">
            <mxPoint x="3030" y="410" as="sourcePoint" />
            <mxPoint x="3020" y="550" as="targetPoint" />
            <Array as="points" />
          </mxGeometry>
        </mxCell>
        <mxCell id="EcH2Z9gAhTrCo4bj2or8-135" value="" style="edgeStyle=elbowEdgeStyle;elbow=horizontal;endArrow=classic;html=1;curved=0;rounded=0;endSize=8;startSize=8;exitX=0;exitY=0.5;exitDx=0;exitDy=0;" parent="WIyWlLk6GJQsqaUBKTNV-1" source="EcH2Z9gAhTrCo4bj2or8-133" edge="1">
          <mxGeometry width="50" height="50" relative="1" as="geometry">
            <mxPoint x="2936" y="837" as="sourcePoint" />
            <mxPoint x="3000" y="320" as="targetPoint" />
            <Array as="points">
              <mxPoint x="2810" y="590" />
            </Array>
          </mxGeometry>
        </mxCell>
        <mxCell id="EcH2Z9gAhTrCo4bj2or8-136" value="&lt;span style=&quot;font-size: 20px;&quot;&gt;false&lt;/span&gt;" style="edgeLabel;html=1;align=center;verticalAlign=middle;resizable=0;points=[];" parent="EcH2Z9gAhTrCo4bj2or8-135" vertex="1" connectable="0">
          <mxGeometry x="-0.1447" y="-4" relative="1" as="geometry">
            <mxPoint x="-58" y="-27" as="offset" />
          </mxGeometry>
        </mxCell>
        <mxCell id="EcH2Z9gAhTrCo4bj2or8-137" value="&lt;font style=&quot;font-size: 15px;&quot;&gt;sum=num+sum&lt;/font&gt;" style="rounded=0;whiteSpace=wrap;html=1;" parent="WIyWlLk6GJQsqaUBKTNV-1" vertex="1">
          <mxGeometry x="2960" y="510" width="120" height="40" as="geometry" />
        </mxCell>
        <mxCell id="EcH2Z9gAhTrCo4bj2or8-138" value="" style="endArrow=classic;html=1;rounded=0;fontSize=12;startSize=8;endSize=8;curved=1;exitX=0.5;exitY=1;exitDx=0;exitDy=0;entryX=0.5;entryY=0;entryDx=0;entryDy=0;" parent="WIyWlLk6GJQsqaUBKTNV-1" source="EcH2Z9gAhTrCo4bj2or8-137" target="EcH2Z9gAhTrCo4bj2or8-133" edge="1">
          <mxGeometry width="50" height="50" relative="1" as="geometry">
            <mxPoint x="3050" y="650" as="sourcePoint" />
            <mxPoint x="3100" y="600" as="targetPoint" />
          </mxGeometry>
        </mxCell>
        <mxCell id="EcH2Z9gAhTrCo4bj2or8-139" value="" style="endArrow=classic;html=1;rounded=0;fontSize=12;startSize=8;endSize=8;curved=1;exitX=0.5;exitY=1;exitDx=0;exitDy=0;entryX=0.5;entryY=0;entryDx=0;entryDy=0;" parent="WIyWlLk6GJQsqaUBKTNV-1" source="EcH2Z9gAhTrCo4bj2or8-133" target="EcH2Z9gAhTrCo4bj2or8-141" edge="1">
          <mxGeometry width="50" height="50" relative="1" as="geometry">
            <mxPoint x="3020" y="740" as="sourcePoint" />
            <mxPoint x="3020" y="690" as="targetPoint" />
          </mxGeometry>
        </mxCell>
        <mxCell id="EcH2Z9gAhTrCo4bj2or8-140" value="&lt;span style=&quot;font-size: 15px;&quot;&gt;sum, average 출력&lt;/span&gt;" style="strokeWidth=2;html=1;shape=mxgraph.flowchart.document2;whiteSpace=wrap;size=0.25;" parent="WIyWlLk6GJQsqaUBKTNV-1" vertex="1">
          <mxGeometry x="2927.5" y="780" width="185" height="70" as="geometry" />
        </mxCell>
        <mxCell id="EcH2Z9gAhTrCo4bj2or8-141" value="&lt;span style=&quot;font-size: 15px;&quot;&gt;average=sum/max&lt;/span&gt;" style="rounded=0;whiteSpace=wrap;html=1;" parent="WIyWlLk6GJQsqaUBKTNV-1" vertex="1">
          <mxGeometry x="2940" y="690" width="160" height="40" as="geometry" />
        </mxCell>
        <mxCell id="EcH2Z9gAhTrCo4bj2or8-142" value="" style="endArrow=classic;html=1;rounded=0;fontSize=12;startSize=8;endSize=8;curved=1;exitX=0.5;exitY=1;exitDx=0;exitDy=0;entryX=0.5;entryY=0;entryDx=0;entryDy=0;entryPerimeter=0;" parent="WIyWlLk6GJQsqaUBKTNV-1" source="EcH2Z9gAhTrCo4bj2or8-141" target="EcH2Z9gAhTrCo4bj2or8-140" edge="1">
          <mxGeometry width="50" height="50" relative="1" as="geometry">
            <mxPoint x="3030" y="655" as="sourcePoint" />
            <mxPoint x="3030" y="700" as="targetPoint" />
          </mxGeometry>
        </mxCell>
        <mxCell id="EcH2Z9gAhTrCo4bj2or8-143" value="" style="endArrow=classic;html=1;rounded=0;fontSize=12;startSize=8;endSize=8;curved=1;exitX=0.506;exitY=0.901;exitDx=0;exitDy=0;exitPerimeter=0;entryX=0.5;entryY=0;entryDx=0;entryDy=0;entryPerimeter=0;" parent="WIyWlLk6GJQsqaUBKTNV-1" source="EcH2Z9gAhTrCo4bj2or8-140" target="EcH2Z9gAhTrCo4bj2or8-144" edge="1">
          <mxGeometry width="50" height="50" relative="1" as="geometry">
            <mxPoint x="2990" y="940" as="sourcePoint" />
            <mxPoint x="3014" y="900" as="targetPoint" />
          </mxGeometry>
        </mxCell>
        <mxCell id="EcH2Z9gAhTrCo4bj2or8-144" value="&lt;span style=&quot;font-size: 15px;&quot;&gt;종료&lt;/span&gt;" style="strokeWidth=2;html=1;shape=mxgraph.flowchart.terminator;whiteSpace=wrap;" parent="WIyWlLk6GJQsqaUBKTNV-1" vertex="1">
          <mxGeometry x="2970" y="900" width="100" height="40" as="geometry" />
        </mxCell>
        <mxCell id="EcH2Z9gAhTrCo4bj2or8-145" value="자료명세표&#xa;num : 숫자를 입력받는 변수&#xa;Max : i의 갯수의 최대치를 나타내는 변수&#xa;변수 i : 숫자를 입력받는 숫자의 양을 나타내는 변수&#xa;변수 sum : num에 입력받은 모든 숫자의 합&#xa;변수 avarage : sum을 Max로 나눈 평균 값&#xa;&#xa;&#xa;처리과정&#xa;1.&#xa; " style="text;whiteSpace=wrap;fontSize=19;" parent="WIyWlLk6GJQsqaUBKTNV-1" vertex="1">
          <mxGeometry x="2720" y="1180" width="600" height="420" as="geometry" />
        </mxCell>
      </root>
    </mxGraphModel>
  </diagram>
</mxfile>
